# xmcd CD database file
#
# Track frame offsets:
#	187
#	37370
#	74802
#	113400
#	155617
#	188862
#
# Disc length: 3041 seconds
#
# Revision: 1
# Processed by: cddbd v1.5.1PL2 Copyright (c) Steve Scherf et al.
# Submitted via: CDex 1.51
#
DISCID=560bdf06
DTITLE=Art Blakey and The All Star Jazz Messengers - Caravan (BMG Victor)
DYEAR=1983
DGENRE=Jazz
TTITLE0=Dana's Dance
TTITLE1=Alamode
TTITLE2=Stella By Starlight
TTITLE3=Caravan
TTITLE4=Just By Myself
TTITLE5=Uranus
EXTD=YEAR: 1983
EXTT0=
EXTT1=
EXTT2=
EXTT3=
EXTT4=
EXTT5=
PLAYORDER=
